<?xml version="1.0" encoding="UTF-8" standalone="no"?>
<svg
   width="16"
   height="16"
   viewBox="0 0 16 16"
   fill="none"
   version="1.1"
   id="svg1"
   sodipodi:docname="file.svg"
   inkscape:version="1.3 (0e150ed6c4, 2023-07-21)"
   xmlns:inkscape="http://www.inkscape.org/namespaces/inkscape"
   xmlns:sodipodi="http://sodipodi.sourceforge.net/DTD/sodipodi-0.dtd"
   xmlns="http://www.w3.org/2000/svg"
   xmlns:svg="http://www.w3.org/2000/svg">
  <defs
     id="defs1" />
  <sodipodi:namedview
     id="namedview1"
     pagecolor="#ffffff"
     bordercolor="#000000"
     borderopacity="0.25"
     inkscape:showpageshadow="2"
     inkscape:pageopacity="0.0"
     inkscape:pagecheckerboard="0"
     inkscape:deskcolor="#d1d1d1"
     inkscape:zoom="25.65625"
     inkscape:cx="12.609013"
     inkscape:cy="13.817296"
     inkscape:window-width="1920"
     inkscape:window-height="1017"
     inkscape:window-x="-8"
     inkscape:window-y="-8"
     inkscape:window-maximized="1"
     inkscape:current-layer="svg1" />
  <path
     d="M 13.859158,9.7704803 V 7.7368339 A 2.6146882,2.6146882 0 0 0 11.244469,5.1221457 H 10.082386 A 0.87156273,0.87156273 0 0 1 9.2108231,4.2505829 V 3.0884993 A 2.6146882,2.6146882 0 0 0 6.5961351,0.47381112 H 5.1435305 m 1.7431255,0 H 3.1098842 c -0.4811026,0 -0.8715627,0.39046011 -0.8715627,0.87156278 V 14.709335 c 0,0.481104 0.3904601,0.871564 0.8715627,0.871564 h 9.8777108 c 0.481103,0 0.871563,-0.39046 0.871563,-0.871564 V 7.446313 A 6.9725019,6.9725019 0 0 0 6.886656,0.47381112 Z"
     stroke="#000000"
     stroke-width="0.842828"
     id="path1"
     sodipodi:nodetypes="cccc"
     style="fill:#aad400" />
</svg>
